{
	"asset":{
		"generator":"Khronos glTF Blender I/O v4.2.70",
		"version":"2.0"
	},
	"scene":0,
	"scenes":[
		{
			"name":"Scene",
			"nodes":[
				0
			]
		}
	],
	"nodes":[
		{
			"mesh":0,
			"name":"Mesh_0_Part_0.001",
			"scale":[
				36.191864013671875,
				36.191864013671875,
				36.191864013671875
			]
		}
	],
	"materials":[
		{
			"doubleSided":true,
			"name":"default_tex0.007",
			"normalTexture":{
				"index":0
			},
			"pbrMetallicRoughness":{
				"baseColorTexture":{
					"index":1
				},
				"metallicFactor":0
			}
		}
	],
	"meshes":[
		{
			"name":"Mesh_0_Part_0.007",
			"primitives":[
				{
					"attributes":{
						"POSITION":0,
						"NORMAL":1,
						"TEXCOORD_0":2
					},
					"indices":3,
					"material":0
				}
			]
		}
	],
	"textures":[
		{
			"sampler":0,
			"source":0
		},
		{
			"sampler":1,
			"source":1
		}
	],
	"images":[
		{
			"mimeType":"image/jpeg",
			"name":"tex_u0_v0_normal",
			"uri":"tex_u0_v0_normal.jpg"
		},
		{
			"mimeType":"image/jpeg",
			"name":"tex_u0_v0_diffuse",
			"uri":"tex_u0_v0_diffuse.jpg"
		}
	],
	"accessors":[
		{
			"bufferView":0,
			"componentType":5126,
			"count":46145,
			"max":[
				0.15496444702148438,
				0.3409217596054077,
				0.16477203369140625
			],
			"min":[
				-0.1591806411743164,
				-0.0075260549783706665,
				-0.14885711669921875
			],
			"type":"VEC3"
		},
		{
			"bufferView":1,
			"componentType":5126,
			"count":46145,
			"type":"VEC3"
		},
		{
			"bufferView":2,
			"componentType":5126,
			"count":46145,
			"type":"VEC2"
		},
		{
			"bufferView":3,
			"componentType":5123,
			"count":218595,
			"type":"SCALAR"
		}
	],
	"bufferViews":[
		{
			"buffer":0,
			"byteLength":553740,
			"byteOffset":0,
			"target":34962
		},
		{
			"buffer":0,
			"byteLength":553740,
			"byteOffset":553740,
			"target":34962
		},
		{
			"buffer":0,
			"byteLength":369160,
			"byteOffset":1107480,
			"target":34962
		},
		{
			"buffer":0,
			"byteLength":437190,
			"byteOffset":1476640,
			"target":34963
		}
	],
	"samplers":[
		{
			"magFilter":9729,
			"minFilter":9987
		},
		{
			"magFilter":9729,
			"minFilter":9987,
			"wrapS":33071,
			"wrapT":33071
		}
	],
	"buffers":[
		{
			"byteLength":1913832,
			"uri":"scene.bin"
		}
	]
}
