{
	"asset":{
		"generator":"Khronos glTF Blender I/O v4.2.70",
		"version":"2.0"
	},
	"scene":0,
	"scenes":[
		{
			"name":"Scene",
			"nodes":[
				0
			]
		}
	],
	"nodes":[
		{
			"mesh":0,
			"name":"Mesh_0_Part_0.002",
			"rotation":[
				0,
				-1,
				0,
				4.371138828673793e-08
			],
			"scale":[
				17.174245834350586,
				17.174245834350586,
				17.174245834350586
			]
		}
	],
	"materials":[
		{
			"name":"default_tex0.006",
			"normalTexture":{
				"index":0
			},
			"pbrMetallicRoughness":{
				"baseColorTexture":{
					"index":1
				},
				"metallicFactor":0
			}
		}
	],
	"meshes":[
		{
			"name":"Mesh_0_Part_0.006",
			"primitives":[
				{
					"attributes":{
						"POSITION":0,
						"NORMAL":1,
						"TEXCOORD_0":2
					},
					"indices":3,
					"material":0
				}
			]
		}
	],
	"textures":[
		{
			"sampler":0,
			"source":0
		},
		{
			"sampler":0,
			"source":1
		}
	],
	"images":[
		{
			"mimeType":"image/jpeg",
			"name":"tex_u0_v0_normal",
			"uri":"tex_u0_v0_normal.jpg"
		},
		{
			"mimeType":"image/jpeg",
			"name":"tex_u0_v0_diffuse",
			"uri":"tex_u0_v0_diffuse.jpg"
		}
	],
	"accessors":[
		{
			"bufferView":0,
			"componentType":5126,
			"count":62797,
			"max":[
				0.36814308166503906,
				0.4065715968608856,
				0.436248779296875
			],
			"min":[
				-0.375091552734375,
				-0.02152516320347786,
				-0.29052734375
			],
			"type":"VEC3"
		},
		{
			"bufferView":1,
			"componentType":5126,
			"count":62797,
			"type":"VEC3"
		},
		{
			"bufferView":2,
			"componentType":5126,
			"count":62797,
			"type":"VEC2"
		},
		{
			"bufferView":3,
			"componentType":5123,
			"count":299994,
			"type":"SCALAR"
		}
	],
	"bufferViews":[
		{
			"buffer":0,
			"byteLength":753564,
			"byteOffset":0,
			"target":34962
		},
		{
			"buffer":0,
			"byteLength":753564,
			"byteOffset":753564,
			"target":34962
		},
		{
			"buffer":0,
			"byteLength":502376,
			"byteOffset":1507128,
			"target":34962
		},
		{
			"buffer":0,
			"byteLength":599988,
			"byteOffset":2009504,
			"target":34963
		}
	],
	"samplers":[
		{
			"magFilter":9729,
			"minFilter":9987,
			"wrapS":33071,
			"wrapT":33071
		}
	],
	"buffers":[
		{
			"byteLength":2609492,
			"uri":"scene.bin"
		}
	]
}
