{
	"asset":{
		"generator":"Khronos glTF Blender I/O v4.2.70",
		"version":"2.0"
	},
	"scene":0,
	"scenes":[
		{
			"name":"Scene",
			"nodes":[
				0
			]
		}
	],
	"nodes":[
		{
			"mesh":0,
			"name":"Mesh_0_Part_0",
			"rotation":[
				0,
				0.01396221574395895,
				0,
				0.9999025464057922
			],
			"scale":[
				81.5216293334961,
				81.5216293334961,
				81.5216293334961
			]
		}
	],
	"materials":[
		{
			"doubleSided":true,
			"name":"default_tex0.005",
			"normalTexture":{
				"index":0
			},
			"pbrMetallicRoughness":{
				"baseColorTexture":{
					"index":1
				},
				"metallicFactor":0
			}
		}
	],
	"meshes":[
		{
			"name":"Mesh_0_Part_0.005",
			"primitives":[
				{
					"attributes":{
						"POSITION":0,
						"NORMAL":1,
						"TEXCOORD_0":2
					},
					"indices":3,
					"material":0
				}
			]
		}
	],
	"textures":[
		{
			"sampler":0,
			"source":0
		},
		{
			"sampler":0,
			"source":1
		}
	],
	"images":[
		{
			"mimeType":"image/jpeg",
			"name":"tex_u0_v0_normal",
			"uri":"tex_u0_v0_normal.jpg"
		},
		{
			"mimeType":"image/jpeg",
			"name":"tex_u0_v0_diffuse",
			"uri":"tex_u0_v0_diffuse.jpg"
		}
	],
	"accessors":[
		{
			"bufferView":0,
			"componentType":5126,
			"count":18620,
			"max":[
				0.0963449478149414,
				0.09845323115587234,
				0.09880638122558594
			],
			"min":[
				-0.10084342956542969,
				-0.0026419698260724545,
				-0.09407424926757812
			],
			"type":"VEC3"
		},
		{
			"bufferView":1,
			"componentType":5126,
			"count":18620,
			"type":"VEC3"
		},
		{
			"bufferView":2,
			"componentType":5126,
			"count":18620,
			"type":"VEC2"
		},
		{
			"bufferView":3,
			"componentType":5123,
			"count":93147,
			"type":"SCALAR"
		}
	],
	"bufferViews":[
		{
			"buffer":0,
			"byteLength":223440,
			"byteOffset":0,
			"target":34962
		},
		{
			"buffer":0,
			"byteLength":223440,
			"byteOffset":223440,
			"target":34962
		},
		{
			"buffer":0,
			"byteLength":148960,
			"byteOffset":446880,
			"target":34962
		},
		{
			"buffer":0,
			"byteLength":186294,
			"byteOffset":595840,
			"target":34963
		}
	],
	"samplers":[
		{
			"magFilter":9729,
			"minFilter":9987
		}
	],
	"buffers":[
		{
			"byteLength":782136,
			"uri":"scene.bin"
		}
	]
}
