{
	"asset":{
		"generator":"Khronos glTF Blender I/O v4.2.70",
		"version":"2.0"
	},
	"scene":0,
	"scenes":[
		{
			"name":"Scene",
			"nodes":[
				0
			]
		}
	],
	"nodes":[
		{
			"mesh":0,
			"name":"Mesh_0_Part_0.004",
			"scale":[
				22.69828987121582,
				22.69828987121582,
				22.69828987121582
			]
		}
	],
	"materials":[
		{
			"doubleSided":true,
			"name":"default_tex0.004",
			"normalTexture":{
				"index":0
			},
			"pbrMetallicRoughness":{
				"baseColorTexture":{
					"index":1
				},
				"metallicFactor":0
			}
		}
	],
	"meshes":[
		{
			"name":"Mesh_0_Part_0.004",
			"primitives":[
				{
					"attributes":{
						"POSITION":0,
						"NORMAL":1,
						"TEXCOORD_0":2
					},
					"indices":3,
					"material":0
				}
			]
		}
	],
	"textures":[
		{
			"sampler":0,
			"source":0
		},
		{
			"sampler":0,
			"source":1
		}
	],
	"images":[
		{
			"mimeType":"image/jpeg",
			"name":"tex_u0_v0_normal",
			"uri":"tex_u0_v0_normal.jpg"
		},
		{
			"mimeType":"image/jpeg",
			"name":"tex_u0_v0_diffuse",
			"uri":"tex_u0_v0_diffuse.jpg"
		}
	],
	"accessors":[
		{
			"bufferView":0,
			"componentType":5126,
			"count":42463,
			"max":[
				0.19506597518920898,
				0.12159697711467743,
				0.19696807861328125
			],
			"min":[
				-0.18410110473632812,
				-0.008690182119607925,
				-0.17493057250976562
			],
			"type":"VEC3"
		},
		{
			"bufferView":1,
			"componentType":5126,
			"count":42463,
			"type":"VEC3"
		},
		{
			"bufferView":2,
			"componentType":5126,
			"count":42463,
			"type":"VEC2"
		},
		{
			"bufferView":3,
			"componentType":5123,
			"count":220509,
			"type":"SCALAR"
		}
	],
	"bufferViews":[
		{
			"buffer":0,
			"byteLength":509556,
			"byteOffset":0,
			"target":34962
		},
		{
			"buffer":0,
			"byteLength":509556,
			"byteOffset":509556,
			"target":34962
		},
		{
			"buffer":0,
			"byteLength":339704,
			"byteOffset":1019112,
			"target":34962
		},
		{
			"buffer":0,
			"byteLength":441018,
			"byteOffset":1358816,
			"target":34963
		}
	],
	"samplers":[
		{
			"magFilter":9729,
			"minFilter":9987,
			"wrapS":33071,
			"wrapT":33071
		}
	],
	"buffers":[
		{
			"byteLength":1799836,
			"uri":"scene.bin"
		}
	]
}
