{
	"asset":{
		"generator":"Khronos glTF Blender I/O v4.2.70",
		"version":"2.0"
	},
	"scene":0,
	"scenes":[
		{
			"name":"Scene",
			"nodes":[
				0
			]
		}
	],
	"nodes":[
		{
			"mesh":0,
			"name":"Mesh_0_Part_0.003",
			"scale":[
				33.986602783203125,
				33.986602783203125,
				33.986602783203125
			]
		}
	],
	"materials":[
		{
			"doubleSided":true,
			"name":"default_tex0.005",
			"normalTexture":{
				"index":0,
				"scale":0.10000000149011612
			},
			"pbrMetallicRoughness":{
				"baseColorTexture":{
					"index":1
				},
				"metallicFactor":0
			}
		}
	],
	"meshes":[
		{
			"name":"Mesh_0_Part_0.005",
			"primitives":[
				{
					"attributes":{
						"POSITION":0,
						"NORMAL":1,
						"TEXCOORD_0":2
					},
					"indices":3,
					"material":0
				}
			]
		}
	],
	"textures":[
		{
			"sampler":0,
			"source":0
		},
		{
			"sampler":0,
			"source":1
		}
	],
	"images":[
		{
			"mimeType":"image/jpeg",
			"name":"tex_u0_v0_normal",
			"uri":"tex_u0_v0_normal.jpg"
		},
		{
			"mimeType":"image/jpeg",
			"name":"tex_u0_v0_diffuse",
			"uri":"tex_u0_v0_diffuse.jpg"
		}
	],
	"accessors":[
		{
			"bufferView":0,
			"componentType":5126,
			"count":24959,
			"max":[
				0.1361541748046875,
				0.0995214581489563,
				0.1398468017578125
			],
			"min":[
				-0.1251506805419922,
				-0.005993068218231201,
				-0.125274658203125
			],
			"type":"VEC3"
		},
		{
			"bufferView":1,
			"componentType":5126,
			"count":24959,
			"type":"VEC3"
		},
		{
			"bufferView":2,
			"componentType":5126,
			"count":24959,
			"type":"VEC2"
		},
		{
			"bufferView":3,
			"componentType":5123,
			"count":129897,
			"type":"SCALAR"
		}
	],
	"bufferViews":[
		{
			"buffer":0,
			"byteLength":299508,
			"byteOffset":0,
			"target":34962
		},
		{
			"buffer":0,
			"byteLength":299508,
			"byteOffset":299508,
			"target":34962
		},
		{
			"buffer":0,
			"byteLength":199672,
			"byteOffset":599016,
			"target":34962
		},
		{
			"buffer":0,
			"byteLength":259794,
			"byteOffset":798688,
			"target":34963
		}
	],
	"samplers":[
		{
			"magFilter":9729,
			"minFilter":9987,
			"wrapS":33071,
			"wrapT":33071
		}
	],
	"buffers":[
		{
			"byteLength":1058484,
			"uri":"scene.bin"
		}
	]
}
